<svg height="100%" width="100%" id="svg" viewBox="0 0 1440 700" xmlns="http://www.w3.org/2000/svg" class="transition duration-300 ease-in-out delay-150"><defs><linearGradient id="gradient"><stop offset="5%" stop-color="#0693e3ff"></stop><stop offset="95%" stop-color="#32ded4ff"></stop></linearGradient></defs><path d="M 0,700 C 0,700 0,350 0,350 C 29.693819732862984,319.75150276666045 59.38763946572597,289.5030055333209 93,326 C 126.61236053427403,362.4969944666791 164.14326186995913,465.73948063337696 203,450 C 241.85673813004087,434.26051936662304 282.03931305443757,299.53907193317116 318,272 C 353.96068694556243,244.4609280668288 385.6994859122907,324.10423163393824 416,339 C 446.3005140877093,353.89576836606176 475.1627432963995,304.04400153107576 509,316 C 542.8372567036005,327.95599846892424 581.6495409021111,401.7197622417587 621,400 C 660.3504590978889,398.2802377582413 700.2390930951564,321.07694950188943 730,299 C 759.7609069048436,276.92305049811057 779.3940867172637,309.9724397506837 809,327 C 838.6059132827363,344.0275602493163 878.1845600357886,345.0332914953757 911,338 C 943.8154399642114,330.9667085046243 969.8676731395815,315.89439426781365 1012,298 C 1054.1323268604185,280.10560573218635 1112.3447474058855,259.3891314333695 1146,272 C 1179.6552525941145,284.6108685666305 1188.753337236877,330.5490799987082 1216,372 C 1243.246662763123,413.4509200012918 1288.6419036466064,450.41454857179764 1329,446 C 1369.3580963533936,441.58545142820236 1404.6790481766968,395.79272571410115 1440,350 C 1440,350 1440,700 1440,700 Z" stroke="none" stroke-width="0" fill="url(#gradient)" class="transition-all duration-300 ease-in-out delay-150"></path></svg>